#!OML:ASF E:\VariousWalksJay\Project 1\Capture day 1\Session 1\Actor2.ASF
:FULLY-SPECIFIED
:DEGREES
883
root -8.78737 17.0926 31.5216 21.2388 -39.9205 -1.41254
lowerback 13.7062 -4.66845 6.05918
upperback 12.791 -5.90897 -1.64606
thorax 5.27131 -2.583 -4.57501
lowerneck 0.501337 3.4086 3.48352
upperneck -13.8893 4.62316 -0.816628
head -4.57764 2.10276 -1.07169
rclavicle 2.38542e-014 -1.98785e-014
rhumerus -47.6402 20.971 -91.4691
rradius 68.2935
rwrist 6.48939
rhand -44.9591 12.633
rfingers 7.12502
rthumb -17.7443 -16.5774
lclavicle 2.38542e-014 -1.98785e-014
lhumerus 8.35599 -43.2876 79.2547
lradius 72.8636
lwrist 32.7282
lhand -26.9409 -2.71933
lfingers 7.12502
lthumb -0.363037 27.2601
rfemur -44.7539 6.67445 24.6509
rtibia 36.5135
rfoot -8.83404 -7.84706
rtoes 5.59681
lfemur -28.4833 15.7662 -20.6227
ltibia 91.596
lfoot -18.1898 -6.61687
ltoes -30.6458
884
root -8.8272 17.0838 31.5574 21.1173 -39.7525 -1.4355
lowerback 14.0211 -4.67408 6.08287
upperback 12.87 -5.89816 -1.64668
thorax 5.19252 -2.579 -4.56951
lowerneck 0.478055 3.36537 3.50233
upperneck -13.9566 4.56926 -0.77308
head -4.59996 2.07125 -1.05897
rclavicle -4.85035e-014 -6.36111e-015
rhumerus -47.3143 20.9584 -91.4591
rradius 68.5892
rwrist 6.54744
rhand -44.8785 12.4255
rfingers 7.12502
rthumb -17.6667 -16.7919
lclavicle -4.85035e-014 -6.36111e-015
lhumerus 9.08231 -43.2921 78.5707
lradius 72.9565
lwrist 32.8818
lhand -27.1634 -2.58717
lfingers 7.12502
lthumb -0.577936 27.3918
rfemur -44.5815 6.58301 24.7737
rtibia 36.9158
rfoot -9.30226 -7.93167
rtoes 5.75192
lfemur -30.0663 15.8691 -20.3657
ltibia 93.8491
lfoot -18.3522 -6.42199
ltoes -30.5163
885
root -8.86462 17.0703 31.5898 20.9751 -39.5809 -1.45671
lowerback 14.3854 -4.68128 6.09679
upperback 12.955 -5.88738 -1.64388
thorax 5.09614 -2.57664 -4.55159
lowerneck 0.436077 3.32159 3.51723
upperneck -14.0243 4.51363 -0.72816
head -4.61888 2.03895 -1.04452
rclavicle -3.18055e-015 -1.59028e-015
rhumerus -46.9531 20.9462 -91.4265
rradius 68.9353
rwrist 6.61529
rhand -44.7974 12.1895
rfingers 7.12502
rthumb -17.5887 -17.0349
lclavicle -3.18055e-015 -1.59028e-015
lhumerus 9.91108 -43.2912 77.7791
lradius 73.07
lwrist 33.0804
lhand -27.4014 -2.42706
lfingers 7.12502
lthumb -0.807795 27.5512
rfemur -44.4533 6.50577 24.8931
rtibia 37.4105
rfoot -9.79818 -8.04204
rtoes 5.90035
lfemur -31.7291 15.9701 -20.1094
ltibia 96.0883
lfoot -18.5052 -6.27671
ltoes -30.3501
886
root -8.89966 17.0519 31.6188 20.8101 -39.4083 -1.47611
lowerback 14.8028 -4.68802 6.09932
upperback 13.047 -5.87405 -1.63753
thorax 4.98185 -2.57476 -4.52036
lowerneck 0.372486 3.27583 3.53131
upperneck -14.0944 4.45397 -0.684436
head -4.63449 2.00462 -1.02964
rclavicle 6.36111e-014 -2.38542e-015
rhumerus -46.5588 20.933 -91.3711
rradius 69.3379
rwrist 6.69005
rhand -44.7102 11.921
rfingers 7.12502
rthumb -17.5047 -17.311
lclavicle 6.36111e-014 -2.38542e-015
lhumerus 10.8483 -43.2841 76.8748
lradius 73.2052
lwrist 33.3238
lhand -27.649 -2.23902
lfingers 7.12502
lthumb -1.04692 27.7382
rfemur -44.3718 6.44617 25.0082
rtibia 38.0046
rfoot -10.3201 -8.17817
rtoes 6.03228
lfemur -33.4723 16.073 -19.8558
ltibia 98.3048
lfoot -18.6488 -6.19122
ltoes -30.1551
887
root -8.93236 17.0282 31.6446 20.6193 -39.2362 -1.49218
lowerback 15.2764 -4.69321 6.08847
upperback 13.1469 -5.85698 -1.62739
thorax 4.84989 -2.57289 -4.47458
lowerneck 0.286374 3.22753 3.54736
upperneck -14.1713 4.38908 -0.645841
head -4.64812 1.96762 -1.01617
rclavicle 4.6118e-014 -5.80451e-014
rhumerus -46.1333 20.9209 -91.2926
rradius 69.8034
rwrist 6.7665
rhand -44.6101 11.616
rfingers 7.12502
rthumb -17.4085 -17.6244
lclavicle 4.6118e-014 -5.80451e-014
lhumerus 11.8976 -43.2657 75.8556
lradius 73.3642
lwrist 33.6117
lhand -27.8962 -2.02332
lfingers 7.12502
lthumb -1.2857 27.9526
rfemur -44.3383 6.40394 25.1181
rtibia 38.704
rfoot -10.8675 -8.33738
rtoes 6.14066
lfemur -35.2955 16.1799 -19.6083
ltibia 100.488
lfoot -18.7824 -6.16739
ltoes -29.9386
888
root -8.9628 16.9991 31.6673 20.3989 -39.0654 -1.50336
lowerback 15.809 -4.69609 6.06384
upperback 13.2555 -5.83531 -1.61399
thorax 4.70016 -2.57057 -4.41471
lowerneck 0.182046 3.17637 3.56875
upperneck -14.2621 4.3185 -0.615542
head -4.66306 1.92754 -1.00603
rclavicle -3.89618e-014 -6.75868e-014
rhumerus -45.6791 20.9108 -91.1923
rradius 70.3369
rwrist 6.83937
rhand -44.4895 11.2749
rfingers 7.12502
rthumb -17.2924 -17.9757
lclavicle -3.89618e-014 -6.75868e-014
lhumerus 13.0585 -43.2295 74.7216
lradius 73.5513
lwrist 33.9448
lhand -28.1314 -1.78178
lfingers 7.12502
lthumb -1.51277 28.1926
rfemur -44.3508 6.37461 25.2239
rtibia 39.5117
rfoot -11.4404 -8.51391
rtoes 6.22086
lfemur -37.1961 16.2912 -19.3717
ltibia 102.627
lfoot -18.905 -6.20037
ltoes -29.7032
889
root -8.99107 16.9643 31.6872 20.1447 -38.8958 -1.5079
lowerback 16.4018 -4.69656 6.02663
upperback 13.3741 -5.80905 -1.59827
thorax 4.53385 -2.5676 -4.34258
lowerneck 0.0644004 3.12258 3.60016
upperneck -14.3734 4.24241 -0.597862
head -4.68271 1.88425 -1.00176
rclavicle 1.24042e-013 -2.94201e-014
rhumerus -45.1981 20.9049 -91.0724
rradius 70.9431
rwrist 6.90203
rhand -44.3404 10.8959
rfingers 7.12502
rthumb -17.1489 -18.3673
lclavicle 1.24042e-013 -2.94201e-014
lhumerus 14.3286 -43.1675 73.4748
lradius 73.7708
lwrist 34.3219
lhand -28.3404 -1.51364
lfingers 7.12502
lthumb -1.71464 28.4592
rfemur -44.4048 6.34979 25.3273
rtibia 40.4278
rfoot -12.0404 -8.6994
rtoes 6.27108
lfemur -39.1695 16.4047 -19.1514
ltibia 104.709
lfoot -19.0153 -6.27803
ltoes -29.4512
890
root -9.01731 16.9237 31.7048 19.8537 -38.7248 -1.50705
lowerback 17.0547 -4.69548 5.98329
upperback 13.504 -5.77895 -1.58146
thorax 4.3525 -2.56373 -4.26329
lowerneck -0.0601195 3.06647 3.64662
upperneck -14.5117 4.16144 -0.595304
head -4.71055 1.83776 -1.0054
rclavicle -7.95139e-016 -4.13472e-014
rhumerus -44.6927 20.9042 -90.9363
rradius 71.6259
rwrist 6.94797
rhand -44.1577 10.4793
rfingers 7.12502
rthumb -16.973 -18.7991
lclavicle -7.95139e-016 -4.13472e-014
lhumerus 15.7041 -43.0713 72.1183
lradius 74.0275
lwrist 34.7408
lhand -28.5097 -1.21698
lfingers 7.12502
lthumb -1.87815 28.7545
rfemur -44.4918 6.31735 25.4341
rtibia 41.4485
rfoot -12.669 -8.88384
rtoes 6.28986
lfemur -41.2082 16.5159 -18.9508
ltibia 106.718
lfoot -19.1117 -6.38551
ltoes -29.1818
891
root -9.04162 16.8774 31.7205 19.5243 -38.549 -1.50333
lowerback 17.7664 -4.69551 5.94065
upperback 13.6461 -5.74791 -1.56362
thorax 4.15762 -2.55983 -4.18061
lowerneck -0.184533 3.00964 3.70737
upperneck -14.6807 4.07802 -0.607922
head -4.7495 1.7892 -1.01716
rclavicle -1.82882e-014 3.33958e-014
rhumerus -44.165 20.9158 -90.7868
rradius 72.3887
rwrist 6.96932
rhand -43.936 10.0247
rfingers 7.12502
rthumb -16.7595 -19.272
lclavicle -1.82882e-014 3.33958e-014
lhumerus 17.1751 -42.9282 70.6621
lradius 74.3248
lwrist 35.1969
lhand -28.6292 -0.888264
lfingers 7.12502
lthumb -1.99358 29.0822
rfemur -44.6019 6.26383 25.5512
rtibia 42.5671
rfoot -13.3282 -9.05743
rtoes 6.27953
lfemur -43.3044 16.618 -18.7725
ltibia 108.641
lfoot -19.1932 -6.5056
ltoes -28.8972
892
root -9.06417 16.8252 31.7349 19.1571 -38.3656 -1.50235
lowerback 18.5339 -4.69842 5.9089
upperback 13.801 -5.71721 -1.54541
thorax 3.95165 -2.55571 -4.10113
lowerneck -0.302627 2.95261 3.78486
upperneck -14.8817 3.99321 -0.635637
head -4.80128 1.73889 -1.03769
rclavicle 4.37326e-014 1.35174e-014
rhumerus -43.6174 20.9426 -90.6274
rradius 73.2348
rwrist 6.95906
rhand -43.6721 9.52887
rfingers 7.12502
rthumb -16.5055 -19.7891
lclavicle 4.37326e-014 1.35174e-014
lhumerus 18.7333 -42.7293 69.1146
lradius 74.6636
lwrist 35.6845
lhand -28.6931 -0.523322
lfingers 7.12502
lthumb -2.05534 29.4465
rfemur -44.7235 6.17772 25.6874
rtibia 43.7737
rfoot -14.019 -9.21184
rtoes 6.24162
lfemur -45.4483 16.7052 -18.6171
ltibia 110.462
lfoot -19.2584 -6.6234
ltoes -28.5981
893
root -9.08515 16.7672 31.7486 18.7537 -38.1731 -1.50933
lowerback 19.3529 -4.70639 5.8951
upperback 13.9691 -5.68874 -1.52651
thorax 3.73719 -2.55173 -4.02859
lowerneck -0.410505 2.89646 3.87676
upperneck -15.1122 3.90879 -0.67629
head -4.86602 1.68775 -1.06596
rclavicle -1.59028e-014 3.33958e-014
rhumerus -43.0512 20.9913 -90.4603
rradius 74.1658
rwrist 6.91154
rhand -43.3646 8.99049
rfingers 7.12502
rthumb -16.2095 -20.3518
lclavicle -1.59028e-014 3.33958e-014
lhumerus 20.3665 -42.4634 67.4897
lradius 75.0426
lwrist 36.1977
lhand -28.6995 -0.117205
lfingers 7.12502
lthumb -2.0615 29.8526
rfemur -44.8464 6.05022 25.8496
rtibia 45.0576
rfoot -14.7409 -9.34193
rtoes 6.175
lfemur -47.6305 16.7718 -18.4855
ltibia 112.168
lfoot -19.3055 -6.72683
ltoes -28.2869
894
root -9.10477 16.7035 31.762 18.318 -37.9727 -1.53121
lowerback 20.2185 -4.72096 5.90507
upperback 14.1498 -5.66349 -1.50618
thorax 3.5167 -2.54799 -3.96565
lowerneck -0.505612 2.84216 3.97972
upperneck -15.3675 3.82638 -0.727196
head -4.94268 1.63673 -1.10055
rclavicle 5.24792e-014 -1.12512e-013
rhumerus -42.4675 21.0698 -90.2865
rradius 75.1825
rwrist 6.82203
rhand -43.0152 8.40812
rfingers 7.12502
rthumb -15.873 -20.9613
lclavicle 5.24792e-014 -1.12512e-013
lhumerus 22.0613 -42.1206 65.8026
lradius 75.4573
lwrist 36.7304
lhand -28.6549 0.332751
lfingers 7.12502
lthumb -2.01839 30.3029
rfemur -44.9621 5.8773 26.0447
rtibia 46.4076
rfoot -15.4922 -9.44611
rtoes 6.07701
lfemur -49.8413 16.8146 -18.3773
ltibia 113.745
lfoot -19.3332 -6.80657
ltoes -27.9705
895
root -9.12323 16.6341 31.7756 17.8543 -37.7679 -1.57275
lowerback 21.1252 -4.74251 5.93959
upperback 14.342 -5.64153 -1.48331
thorax 3.2926 -2.54448 -3.91196
lowerneck -0.52005 2.78805 4.07947
upperneck -16.0923 3.73836 -0.839423
head -4.65011 1.58822 -1.07012
rclavicle 1.31993e-013 -5.84427e-014
rhumerus -41.866 21.1863 -90.1053
rradius 76.2839
rwrist 6.68806
rhand -42.6273 7.77977
rfingers 7.12502
rthumb -15.4994 -21.619
lclavicle 1.31993e-013 -5.84427e-014
lhumerus 23.8043 -41.6921 64.0698
lradius 75.9009
lwrist 37.2793
lhand -28.5718 0.826003
lfingers 7.12502
lthumb -1.93812 30.7969
rfemur -45.0652 5.6597 26.2757
rtibia 47.8138
rfoot -16.2701 -9.52641
rtoes 5.94561
lfemur -52.0718 16.832 -18.2937
ltibia 115.182
lfoot -19.3394 -6.85701
ltoes -27.6539
896
root -9.14076 16.5591 31.7895 17.3662 -37.5662 -1.63583
lowerback 22.0673 -4.76904 5.99505
upperback 14.5442 -5.62051 -1.45787
thorax 3.06749 -2.54026 -3.86629
lowerneck -0.578404 2.73881 4.19104
upperneck -16.4001 3.66227 -0.905628
head -4.73363 1.5398 -1.10882
rclavicle -1.59028e-015 7.95139e-015
rhumerus -41.2453 21.3444 -89.9155
rradius 77.4663
rwrist 6.51094
rhand -42.2071 7.10603
rfingers 7.12502
rthumb -15.0946 -22.3236
lclavicle -1.59028e-015 7.95139e-015
lhumerus 25.5839 -41.1728 62.3054
lradius 76.3647
lwrist 37.8433
lhand -28.4684 1.35762
lfingers 7.12502
lthumb -1.83831 31.3294
rfemur -45.1533 5.40273 26.5417
rtibia 49.2678
rfoot -17.0705 -9.58734
rtoes 5.77635
lfemur -54.3134 16.8244 -18.238
ltibia 116.466
lfoot -19.322 -6.87593
ltoes -27.3381
897
root -9.15758 16.4785 31.8041 16.8575 -37.377 -1.72004
lowerback 23.0382 -4.79742 6.06471
upperback 14.7549 -5.5974 -1.4302
thorax 2.84426 -2.53425 -3.82638
lowerneck -0.622176 2.69221 4.30366
upperneck -16.7182 3.58986 -0.975117
head -4.82287 1.49295 -1.14924
rclavicle 6.36111e-015 2.50469e-014
rhumerus -40.6026 21.5473 -89.715
rradius 78.7243
rwrist 6.29252
rhand -41.7629 6.3885
rfingers 7.12502
rthumb -14.6667 -23.0728
lclavicle 6.36111e-015 2.50469e-014
lhumerus 27.3889 -40.5591 60.5236
lradius 76.8386
lwrist 38.4223
lhand -28.366 1.91924
lfingers 7.12502
lthumb -1.73942 31.8919
rfemur -45.2272 5.11453 26.8389
rtibia 50.7631
rfoot -17.8892 -9.63456
rtoes 5.56353
lfemur -56.557 16.7928 -18.215
ltibia 117.588
lfoot -19.2797 -6.86184
ltoes -27.0248
